<svg width="512" height="512" viewBox="0 0 512 512" fill="none" xmlns="http://www.w3.org/2000/svg">
<rect width="512" height="512" fill="#1E1E1E"/>
<rect width="512" height="512" fill="#0EA5E9"/>
<path d="M355.885 134.006L271.48 335.337M337.454 178.042L355.885 134.006H80.7429M337.454 178.042L485.673 241.207C490.552 243.286 493.169 248.628 491.822 253.758L472.501 327.36C471.267 332.06 467.019 335.337 462.159 335.337H431.5M337.454 178.042L271.48 335.337M271.48 335.337L179.941 337.154M271.48 335.337H365.269M80.7429 337.154C80.7429 337.154 105.695 337.154 120.541 337.154M34.4109 229.64H210.235M63.5169 183.483H210.235M210.235 277.754H18.3729" stroke="white" stroke-width="14.256" stroke-linecap="round"/>
<circle cx="397.966" cy="338.126" r="27.918" stroke="white" stroke-width="14.256"/>
<circle cx="149.566" cy="338.126" r="27.918" stroke="white" stroke-width="14.256"/>
</svg>
